<mxfile host="app.diagrams.net" modified="2024-06-01T13:26:04.510Z" agent="Mozilla/5.0 (Windows NT 10.0; Win64; x64) AppleWebKit/537.36 (KHTML, like Gecko) Chrome/125.0.0.0 Safari/537.36" etag="AcyDVZbnLGAI-OaHjppf" version="24.4.13" type="google">
  <diagram id="C5RBs43oDa-KdzZeNtuy" name="Page-1">
    <mxGraphModel grid="0" page="1" gridSize="10" guides="1" tooltips="1" connect="1" arrows="1" fold="1" pageScale="1" pageWidth="827" pageHeight="1169" math="0" shadow="0">
      <root>
        <mxCell id="WIyWlLk6GJQsqaUBKTNV-0" />
        <mxCell id="WIyWlLk6GJQsqaUBKTNV-1" parent="WIyWlLk6GJQsqaUBKTNV-0" />
        <mxCell id="I0SJYfmjSQJK0VYN3gI5-8" value="&lt;b&gt;Propiedad&lt;/b&gt;" style="swimlane;fontStyle=0;childLayout=stackLayout;horizontal=1;startSize=26;fillColor=none;horizontalStack=0;resizeParent=1;resizeParentMax=0;resizeLast=0;collapsible=1;marginBottom=0;whiteSpace=wrap;html=1;" vertex="1" parent="WIyWlLk6GJQsqaUBKTNV-1">
          <mxGeometry x="130" y="30" width="140" height="160" as="geometry" />
        </mxCell>
        <mxCell id="I0SJYfmjSQJK0VYN3gI5-9" value="&lt;font style=&quot;vertical-align: inherit;&quot;&gt;- id: String&lt;/font&gt;&lt;div&gt;&lt;font style=&quot;vertical-align: inherit;&quot;&gt;- tipo: String&lt;/font&gt;&lt;/div&gt;&lt;div&gt;&lt;font style=&quot;vertical-align: inherit;&quot;&gt;- precio: double&lt;/font&gt;&lt;/div&gt;&lt;div&gt;&lt;font style=&quot;vertical-align: inherit;&quot;&gt;- ciudad: String&lt;/font&gt;&lt;/div&gt;&lt;div&gt;&lt;font style=&quot;vertical-align: inherit;&quot;&gt;- pais: String&lt;/font&gt;&lt;/div&gt;&lt;div&gt;&lt;font style=&quot;vertical-align: inherit;&quot;&gt;- direccion:String&lt;/font&gt;&lt;/div&gt;&lt;div&gt;&lt;font style=&quot;vertical-align: inherit;&quot;&gt;- propietario: Propietario&lt;br&gt;&lt;/font&gt;&lt;/div&gt;&lt;div&gt;- disponible: boolean&lt;/div&gt;&lt;div&gt;&lt;br&gt;&lt;/div&gt;" style="text;strokeColor=none;fillColor=none;align=left;verticalAlign=top;spacingLeft=4;spacingRight=4;overflow=hidden;rotatable=0;points=[[0,0.5],[1,0.5]];portConstraint=eastwest;whiteSpace=wrap;html=1;" vertex="1" parent="I0SJYfmjSQJK0VYN3gI5-8">
          <mxGeometry y="26" width="140" height="134" as="geometry" />
        </mxCell>
        <mxCell id="I0SJYfmjSQJK0VYN3gI5-13" value="&lt;b&gt;Propietario&lt;/b&gt;" style="swimlane;fontStyle=0;childLayout=stackLayout;horizontal=1;startSize=26;fillColor=none;horizontalStack=0;resizeParent=1;resizeParentMax=0;resizeLast=0;collapsible=1;marginBottom=0;whiteSpace=wrap;html=1;" vertex="1" parent="WIyWlLk6GJQsqaUBKTNV-1">
          <mxGeometry x="380" y="20" width="140" height="110" as="geometry" />
        </mxCell>
        <mxCell id="I0SJYfmjSQJK0VYN3gI5-14" value="- id: String&lt;div&gt;- nombre: String&lt;/div&gt;&lt;div&gt;- apellido:&amp;nbsp;&lt;/div&gt;&lt;div&gt;- nacionalidad: String&lt;/div&gt;&lt;div&gt;- Propiedades: List&lt;/div&gt;" style="text;strokeColor=none;fillColor=none;align=left;verticalAlign=top;spacingLeft=4;spacingRight=4;overflow=hidden;rotatable=0;points=[[0,0.5],[1,0.5]];portConstraint=eastwest;whiteSpace=wrap;html=1;" vertex="1" parent="I0SJYfmjSQJK0VYN3gI5-13">
          <mxGeometry y="26" width="140" height="84" as="geometry" />
        </mxCell>
        <mxCell id="I0SJYfmjSQJK0VYN3gI5-17" value="&lt;b&gt;Venta&lt;/b&gt;" style="swimlane;fontStyle=0;childLayout=stackLayout;horizontal=1;startSize=26;fillColor=none;horizontalStack=0;resizeParent=1;resizeParentMax=0;resizeLast=0;collapsible=1;marginBottom=0;whiteSpace=wrap;html=1;" vertex="1" parent="WIyWlLk6GJQsqaUBKTNV-1">
          <mxGeometry x="350" y="230" width="140" height="140" as="geometry" />
        </mxCell>
        <mxCell id="I0SJYfmjSQJK0VYN3gI5-18" value="- propiedad: Propiedad&lt;div&gt;- propietario: Propietario&lt;/div&gt;&lt;div&gt;- vendedor: Vendedor&lt;/div&gt;&lt;div&gt;- fecha: Date&lt;/div&gt;&lt;div&gt;- monto: double&lt;/div&gt;&lt;div&gt;- moneda: String&lt;/div&gt;&lt;div&gt;- impuestos: Impuesto&lt;/div&gt;" style="text;strokeColor=none;fillColor=none;align=left;verticalAlign=top;spacingLeft=4;spacingRight=4;overflow=hidden;rotatable=0;points=[[0,0.5],[1,0.5]];portConstraint=eastwest;whiteSpace=wrap;html=1;" vertex="1" parent="I0SJYfmjSQJK0VYN3gI5-17">
          <mxGeometry y="26" width="140" height="114" as="geometry" />
        </mxCell>
        <mxCell id="I0SJYfmjSQJK0VYN3gI5-21" value="&lt;b&gt;Vendedor&lt;/b&gt;" style="swimlane;fontStyle=0;childLayout=stackLayout;horizontal=1;startSize=26;fillColor=none;horizontalStack=0;resizeParent=1;resizeParentMax=0;resizeLast=0;collapsible=1;marginBottom=0;whiteSpace=wrap;html=1;" vertex="1" parent="WIyWlLk6GJQsqaUBKTNV-1">
          <mxGeometry x="130" y="240" width="140" height="90" as="geometry" />
        </mxCell>
        <mxCell id="I0SJYfmjSQJK0VYN3gI5-22" value="-&amp;nbsp; id: String&lt;div&gt;- nombre: String&lt;/div&gt;&lt;div&gt;- apellido: String&lt;/div&gt;&lt;div&gt;- telefono: String&amp;nbsp;&lt;/div&gt;&lt;div&gt;&lt;br&gt;&lt;/div&gt;" style="text;strokeColor=none;fillColor=none;align=left;verticalAlign=top;spacingLeft=4;spacingRight=4;overflow=hidden;rotatable=0;points=[[0,0.5],[1,0.5]];portConstraint=eastwest;whiteSpace=wrap;html=1;" vertex="1" parent="I0SJYfmjSQJK0VYN3gI5-21">
          <mxGeometry y="26" width="140" height="64" as="geometry" />
        </mxCell>
        <mxCell id="I0SJYfmjSQJK0VYN3gI5-25" value="&lt;b&gt;Multa&lt;/b&gt;" style="swimlane;fontStyle=0;childLayout=stackLayout;horizontal=1;startSize=26;fillColor=none;horizontalStack=0;resizeParent=1;resizeParentMax=0;resizeLast=0;collapsible=1;marginBottom=0;whiteSpace=wrap;html=1;" vertex="1" parent="WIyWlLk6GJQsqaUBKTNV-1">
          <mxGeometry x="600" y="50" width="140" height="80" as="geometry" />
        </mxCell>
        <mxCell id="I0SJYfmjSQJK0VYN3gI5-26" value="- propietario: Porpietario&lt;div&gt;- monto: double&lt;/div&gt;&lt;div&gt;- fecha: Date&lt;/div&gt;" style="text;strokeColor=none;fillColor=none;align=left;verticalAlign=top;spacingLeft=4;spacingRight=4;overflow=hidden;rotatable=0;points=[[0,0.5],[1,0.5]];portConstraint=eastwest;whiteSpace=wrap;html=1;" vertex="1" parent="I0SJYfmjSQJK0VYN3gI5-25">
          <mxGeometry y="26" width="140" height="54" as="geometry" />
        </mxCell>
        <mxCell id="I0SJYfmjSQJK0VYN3gI5-29" value="&lt;b&gt;Impuestos&lt;/b&gt;" style="swimlane;fontStyle=0;childLayout=stackLayout;horizontal=1;startSize=26;fillColor=none;horizontalStack=0;resizeParent=1;resizeParentMax=0;resizeLast=0;collapsible=1;marginBottom=0;whiteSpace=wrap;html=1;" vertex="1" parent="WIyWlLk6GJQsqaUBKTNV-1">
          <mxGeometry x="590" y="260" width="140" height="80" as="geometry" />
        </mxCell>
        <mxCell id="I0SJYfmjSQJK0VYN3gI5-30" value="- REF: float&lt;div&gt;- INCBI: float&lt;/div&gt;&lt;div&gt;- COMISION: float&lt;/div&gt;" style="text;strokeColor=none;fillColor=none;align=left;verticalAlign=top;spacingLeft=4;spacingRight=4;overflow=hidden;rotatable=0;points=[[0,0.5],[1,0.5]];portConstraint=eastwest;whiteSpace=wrap;html=1;" vertex="1" parent="I0SJYfmjSQJK0VYN3gI5-29">
          <mxGeometry y="26" width="140" height="54" as="geometry" />
        </mxCell>
        <mxCell id="rTq_QOapTCMrJSsONJlr-4" value="" style="endArrow=open;endFill=1;endSize=12;html=1;rounded=0;exitX=0.5;exitY=0;exitDx=0;exitDy=0;" edge="1" parent="WIyWlLk6GJQsqaUBKTNV-1" source="I0SJYfmjSQJK0VYN3gI5-21">
          <mxGeometry width="160" relative="1" as="geometry">
            <mxPoint x="240" y="220" as="sourcePoint" />
            <mxPoint x="200" y="190" as="targetPoint" />
          </mxGeometry>
        </mxCell>
        <mxCell id="rTq_QOapTCMrJSsONJlr-8" value="" style="endArrow=diamondThin;endFill=0;endSize=24;html=1;rounded=0;" edge="1" parent="WIyWlLk6GJQsqaUBKTNV-1">
          <mxGeometry width="160" relative="1" as="geometry">
            <mxPoint x="270" y="280" as="sourcePoint" />
            <mxPoint x="350" y="280" as="targetPoint" />
          </mxGeometry>
        </mxCell>
        <mxCell id="rTq_QOapTCMrJSsONJlr-9" value="" style="endArrow=diamondThin;endFill=0;endSize=24;html=1;rounded=0;exitX=0;exitY=0.414;exitDx=0;exitDy=0;exitPerimeter=0;entryX=0.999;entryY=0.186;entryDx=0;entryDy=0;entryPerimeter=0;" edge="1" parent="WIyWlLk6GJQsqaUBKTNV-1" source="I0SJYfmjSQJK0VYN3gI5-14" target="I0SJYfmjSQJK0VYN3gI5-9">
          <mxGeometry width="160" relative="1" as="geometry">
            <mxPoint x="270" y="80" as="sourcePoint" />
            <mxPoint x="271" y="81" as="targetPoint" />
          </mxGeometry>
        </mxCell>
        <mxCell id="rTq_QOapTCMrJSsONJlr-10" value="" style="endArrow=diamondThin;endFill=1;endSize=24;html=1;rounded=0;entryX=1.005;entryY=0.407;entryDx=0;entryDy=0;entryPerimeter=0;" edge="1" parent="WIyWlLk6GJQsqaUBKTNV-1">
          <mxGeometry width="160" relative="1" as="geometry">
            <mxPoint x="590" y="300" as="sourcePoint" />
            <mxPoint x="489.99999999999994" y="299.69800000000004" as="targetPoint" />
            <Array as="points">
              <mxPoint x="549.3" y="300.3" />
            </Array>
          </mxGeometry>
        </mxCell>
        <mxCell id="rTq_QOapTCMrJSsONJlr-11" value="" style="endArrow=diamondThin;endFill=0;endSize=24;html=1;rounded=0;entryX=1.001;entryY=0.8;entryDx=0;entryDy=0;entryPerimeter=0;" edge="1" parent="WIyWlLk6GJQsqaUBKTNV-1" target="I0SJYfmjSQJK0VYN3gI5-9">
          <mxGeometry width="160" relative="1" as="geometry">
            <mxPoint x="390" y="230" as="sourcePoint" />
            <mxPoint x="480" y="240" as="targetPoint" />
            <Array as="points">
              <mxPoint x="390" y="163" />
            </Array>
          </mxGeometry>
        </mxCell>
        <mxCell id="rTq_QOapTCMrJSsONJlr-12" value="1...*" style="text;strokeColor=none;align=center;fillColor=none;html=1;verticalAlign=middle;whiteSpace=wrap;rounded=0;" vertex="1" parent="WIyWlLk6GJQsqaUBKTNV-1">
          <mxGeometry x="350" y="65" width="30" height="20" as="geometry" />
        </mxCell>
        <mxCell id="rTq_QOapTCMrJSsONJlr-13" value="1" style="text;strokeColor=none;align=center;fillColor=none;html=1;verticalAlign=middle;whiteSpace=wrap;rounded=0;" vertex="1" parent="WIyWlLk6GJQsqaUBKTNV-1">
          <mxGeometry x="260" y="85" width="40" height="20" as="geometry" />
        </mxCell>
        <mxCell id="rTq_QOapTCMrJSsONJlr-14" value="1...*" style="text;strokeColor=none;align=center;fillColor=none;html=1;verticalAlign=middle;whiteSpace=wrap;rounded=0;" vertex="1" parent="WIyWlLk6GJQsqaUBKTNV-1">
          <mxGeometry x="190" y="220" width="50" height="20" as="geometry" />
        </mxCell>
        <mxCell id="rTq_QOapTCMrJSsONJlr-15" value="1" style="text;strokeColor=none;align=center;fillColor=none;html=1;verticalAlign=middle;whiteSpace=wrap;rounded=0;" vertex="1" parent="WIyWlLk6GJQsqaUBKTNV-1">
          <mxGeometry x="195" y="190" width="40" height="20" as="geometry" />
        </mxCell>
        <mxCell id="rTq_QOapTCMrJSsONJlr-16" value="1...*" style="text;strokeColor=none;align=center;fillColor=none;html=1;verticalAlign=middle;whiteSpace=wrap;rounded=0;" vertex="1" parent="WIyWlLk6GJQsqaUBKTNV-1">
          <mxGeometry x="450" y="210" width="50" height="20" as="geometry" />
        </mxCell>
        <mxCell id="rTq_QOapTCMrJSsONJlr-17" value="1...*" style="text;strokeColor=none;align=center;fillColor=none;html=1;verticalAlign=middle;whiteSpace=wrap;rounded=0;" vertex="1" parent="WIyWlLk6GJQsqaUBKTNV-1">
          <mxGeometry x="260" y="130" width="60" height="30" as="geometry" />
        </mxCell>
        <mxCell id="rTq_QOapTCMrJSsONJlr-18" value="" style="endArrow=diamondThin;endFill=0;endSize=24;html=1;rounded=0;entryX=0.715;entryY=1.034;entryDx=0;entryDy=0;entryPerimeter=0;exitX=0.783;exitY=-0.005;exitDx=0;exitDy=0;exitPerimeter=0;" edge="1" parent="WIyWlLk6GJQsqaUBKTNV-1" source="I0SJYfmjSQJK0VYN3gI5-17">
          <mxGeometry width="160" relative="1" as="geometry">
            <mxPoint x="460.0000000000001" y="225.18" as="sourcePoint" />
            <mxPoint x="460.32000000000005" y="129.99599999999998" as="targetPoint" />
            <Array as="points">
              <mxPoint x="460.22" y="167.14" />
            </Array>
          </mxGeometry>
        </mxCell>
        <mxCell id="rTq_QOapTCMrJSsONJlr-19" value="1...*" style="text;strokeColor=none;align=center;fillColor=none;html=1;verticalAlign=middle;whiteSpace=wrap;rounded=0;" vertex="1" parent="WIyWlLk6GJQsqaUBKTNV-1">
          <mxGeometry x="450" y="130" width="60" height="30" as="geometry" />
        </mxCell>
        <mxCell id="rTq_QOapTCMrJSsONJlr-20" value="1...*" style="text;strokeColor=none;align=center;fillColor=none;html=1;verticalAlign=middle;whiteSpace=wrap;rounded=0;" vertex="1" parent="WIyWlLk6GJQsqaUBKTNV-1">
          <mxGeometry x="350" y="205" width="60" height="30" as="geometry" />
        </mxCell>
        <mxCell id="rTq_QOapTCMrJSsONJlr-21" value="1...*" style="text;strokeColor=none;align=center;fillColor=none;html=1;verticalAlign=middle;whiteSpace=wrap;rounded=0;" vertex="1" parent="WIyWlLk6GJQsqaUBKTNV-1">
          <mxGeometry x="480" y="300" width="60" height="30" as="geometry" />
        </mxCell>
        <mxCell id="rTq_QOapTCMrJSsONJlr-23" value="1...*" style="text;strokeColor=none;align=center;fillColor=none;html=1;verticalAlign=middle;whiteSpace=wrap;rounded=0;" vertex="1" parent="WIyWlLk6GJQsqaUBKTNV-1">
          <mxGeometry x="540" y="280" width="60" height="30" as="geometry" />
        </mxCell>
        <mxCell id="rTq_QOapTCMrJSsONJlr-24" value="" style="endArrow=diamondThin;endFill=0;endSize=24;html=1;rounded=0;entryX=1;entryY=0.5;entryDx=0;entryDy=0;" edge="1" parent="WIyWlLk6GJQsqaUBKTNV-1" target="I0SJYfmjSQJK0VYN3gI5-14">
          <mxGeometry width="160" relative="1" as="geometry">
            <mxPoint x="600" y="88" as="sourcePoint" />
            <mxPoint x="740" y="160" as="targetPoint" />
          </mxGeometry>
        </mxCell>
      </root>
    </mxGraphModel>
  </diagram>
</mxfile>
